<svg width="612" height="83" viewBox="0 0 612 83" fill="none" xmlns="http://www.w3.org/2000/svg">
<path d="M11.6483 82.304V70.784H0.000312805V57.856H12.9283V69.504H46.4643V47.488H11.6483V34.816H46.4643V12.928H12.9283V24.448H0.000312805V11.648H11.6483V0H47.7443V11.648H59.5203V35.968H47.7443V46.208H59.5203V70.784H47.7443V82.304H11.6483ZM86.6483 82.304V70.784H75.0003V41.6H121.464V35.968H75.0003V23.168H122.744V34.816H134.52V69.504H146.168V82.304H133.24V70.784H122.744V82.304H86.6483ZM87.9283 69.504H121.464V54.528H87.9283V69.504ZM161.625 82.304V23.168H174.553V46.208H184.793V34.816H208.089V23.168H221.145V35.968H209.369V47.488H186.073V57.856H209.369V69.504H221.145V82.304H208.089V70.784H184.793V59.136H174.553V82.304H161.625ZM248.273 82.304V70.784H236.625V41.6H283.089V35.968H236.625V23.168H284.369V34.816H296.145V69.504H307.793V82.304H294.865V70.784H284.369V82.304H248.273ZM249.553 69.504H283.089V54.528H249.553V69.504ZM334.898 82.304V70.656H323.25V57.728H336.178V69.504H369.714V59.136H346.418V46.208H369.714V35.968H336.178V47.488H323.25V34.816H334.898V23.168H370.994V34.816H382.77V70.784H370.994V82.304H334.898ZM409.898 82.304V70.784H398.25V41.6H444.714V35.968H398.25V23.168H445.994V34.816H457.77V69.504H469.418V82.304H456.49V70.784H445.994V82.304H409.898ZM411.178 69.504H444.714V54.528H411.178V69.504ZM508.043 82.304V35.84H497.803V47.36H484.875V34.688H496.523V23.04H532.619V34.688H544.395V47.36H531.339V35.84H521.099V82.304H508.043ZM563.843 82.304V70.784H552.195V0H565.123V23.168H599.939V34.816H611.715V70.784H599.939V82.304H563.843ZM565.123 69.504H598.659V35.968H565.123V69.504Z" fill="#0C6700"/>
</svg>
